<svg xmlns="http://www.w3.org/2000/svg" version="1.1" x="0" y="0" width="138.4" height="14.2" viewBox="0 0 138.4 14.2" enable-background="new 0 0 138.4 14.2" xml:space="preserve"><polygon fill="#FFFFFF" points="32.4 7.7 40.6 7.7 40.6 5.4 29.5 5.4 29.5 14.2 41.8 14.2 41.8 11.7 32.4 11.7 "/><rect x="29.5" y="0" fill="#FFFFFF" width="12.1" height="2.5"/><polygon fill="#FFFFFF" points="0 2.5 5.2 2.5 5.2 14.2 8.1 14.2 8.1 2.5 13.3 2.5 13.3 0 0 0 "/><rect x="88.4" y="0" fill="#FFFFFF" width="12.1" height="2.5"/><path fill="#FFFFFF" d="M70.2 6.2c0.6-0.7 0.9-1.5 0.9-2.4 0-0.5-0.1-1.1-0.3-1.5 -0.2-0.5-0.6-0.9-1-1.2 -0.5-0.3-1-0.6-1.7-0.8C67.3 0.1 66.5 0 65.6 0H58v2.5h7.6c0.8 0 1.4 0.1 1.8 0.4C67.8 3.2 68 3.6 68 4.1c0 0.5-0.2 0.9-0.6 1.3 -0.2 0-0.5 0-0.7 0H58v8.7h8.7c0.9 0 1.7-0.1 2.4-0.3 0.7-0.2 1.3-0.5 1.7-0.9 0.5-0.4 0.8-0.8 1-1.4 0.2-0.5 0.3-1.1 0.3-1.8 0-0.8-0.2-1.5-0.5-2.1C71.3 7.1 70.9 6.6 70.2 6.2zM68.5 11.2c-0.4 0.3-1 0.5-1.8 0.5h-5.9V7.8h5.9c0.8 0 1.4 0.2 1.8 0.5 0.4 0.3 0.6 0.8 0.6 1.4C69.1 10.4 68.9 10.8 68.5 11.2z"/><polygon fill="#FFFFFF" points="126.2 6.9 131.8 0 128.3 0 124.5 4.9 120.8 0 117.3 0 122.7 7 116.8 14.2 120.3 14.2 124.4 9.1 128.5 14.2 132 14.2 "/><polygon fill="#FFFFFF" points="91.2 7.7 99.4 7.7 99.4 5.4 88.4 5.4 88.4 14.2 100.6 14.2 100.6 11.7 91.2 11.7 "/><path fill="#FFFFFF" d="M133.8 0h1.8v0.3h-0.7v1.9h-0.4V0.3h-0.7V0zM136.1 0h0.5l0.6 1.7h0l0.6-1.7h0.5v2.2H138V0.5h0l-0.6 1.7h-0.3l-0.6-1.7h0v1.7h-0.4V0z"/></svg>